<?xml version="1.0" encoding="utf-8"?>
<svg version="1.1" xmlns:xlink="http://www.w3.org/1999/xlink" width="45px" height="42px" xmlns="http://www.w3.org/2000/svg">
  <g transform="matrix(1 0 0 1 -2192 -549 )">
    <path d="M 43.515625 19.154296875  C 44.5052083333333 19.673828125  45 20.2890625  45 21  C 45 21.7109375  44.5052083333333 22.326171875  43.515625 22.845703125  L 8.515625 41.220703125  C 7.52604166666667 41.740234375  6.35416666666667 42  5 42  C 3.64583333333333 42  2.47395833333333 41.740234375  1.484375 41.220703125  C 0.494791666666667 40.701171875  0 40.0859375  0 39.375  L 0 2.625  C 0 1.91406249999999  0.494791666666667 1.29882812499999  1.484375 0.779296875  C 2.47395833333333 0.259765624999997  3.64583333333333 0  5 0  C 6.35416666666667 0  7.52604166666667 0.259765624999997  8.515625 0.779296875  L 43.515625 19.154296875  Z " fill-rule="nonzero" fill="#d7d7d7" stroke="none" transform="matrix(1 0 0 1 2192 549 )" />
  </g>
</svg>