<?xml version="1.0" encoding="utf-8"?>
<svg version="1.1" xmlns:xlink="http://www.w3.org/1999/xlink" width="45px" height="42px" xmlns="http://www.w3.org/2000/svg">
  <g transform="matrix(1 0 0 1 -97 -549 )">
    <path d="M 43.515625 0.779296875  C 44.5052083333333 1.29882812499999  45 1.91406249999999  45 2.625  L 45 39.375  C 45 40.0859375  44.5052083333333 40.701171875  43.515625 41.220703125  C 42.5260416666667 41.740234375  41.3541666666667 42  40 42  C 38.6458333333333 42  37.4739583333333 41.740234375  36.484375 41.220703125  L 1.484375 22.845703125  C 0.494791666666667 22.326171875  0 21.7109375  0 21  C 0 20.2890625  0.494791666666667 19.673828125  1.484375 19.154296875  L 36.484375 0.779296875  C 37.4739583333333 0.259765624999997  38.6458333333333 0  40 0  C 41.3541666666667 0  42.5260416666667 0.259765624999997  43.515625 0.779296875  Z " fill-rule="nonzero" fill="#fffcfc" stroke="none" transform="matrix(1 0 0 1 97 549 )" />
  </g>
</svg>