<?xml version="1.0" encoding="utf-8"?>
<svg version="1.1" xmlns:xlink="http://www.w3.org/1999/xlink" width="97px" height="61px" xmlns="http://www.w3.org/2000/svg">
  <g transform="matrix(1 0 0 1 -2487 -5457 )">
    <path d="M 97 47.4739130434783  C 97 48.5151368760065  96.618899917287 49.4090177133655  95.856699751861 50.1555555555556  L 85.8678660049628 59.880193236715  C 85.1056658395368 60.626731078905  84.2030603804798 61  83.1600496277916 61  C 82.1170388751034 61  81.2144334160463 60.626731078905  80.4522332506203 59.880193236715  L 48.5 28.5845410628019  L 16.5477667493797 59.880193236715  C 15.7855665839537 60.626731078905  14.8829611248966 61  13.8399503722084 61  C 12.7969396195203 61  11.8943341604632 60.626731078905  11.1321339950372 59.880193236715  L 1.14330024813896 50.1555555555556  C 0.381100082712987 49.4090177133655  0 48.5151368760065  0 47.4739130434783  C 0 46.4326892109501  0.381100082712987 45.538808373591  1.14330024813896 44.792270531401  L 45.7921836228288 1.11980676328502  C 46.5543837882548 0.373268921095006  47.4569892473118 0  48.5 0  C 49.5430107526882 0  50.4456162117452 0.373268921095006  51.2078163771712 1.11980676328502  L 95.856699751861 44.792270531401  C 96.618899917287 45.538808373591  97 46.4326892109501  97 47.4739130434783  Z " fill-rule="nonzero" fill="#000000" stroke="none" transform="matrix(1 0 0 1 2487 5457 )" />
  </g>
</svg>