<?xml version="1.0" encoding="utf-8"?>
<svg version="1.1" xmlns:xlink="http://www.w3.org/1999/xlink" width="54px" height="70px" xmlns="http://www.w3.org/2000/svg">
  <g transform="matrix(1 0 0 1 -1101 -1190 )">
    <path d="M 23.8167613636364 0.742187500000002  C 24.3025568181818 1.23697916666666  24.5454545454545 1.82291666666666  25 2.5  L 25 27.5  C 24.5454545454545 29.0885416666667  24.0916193181818 30.5338541666667  23.1839488636364 31.8359375  C 22.2762784090909 33.1380208333333  21.09375 34.0494791666667  20 34.5703125  L 20 65  C 19.6363636363636 66.3541666666667  19.1505681818182 67.5260416666667  18.1789772727273 68.515625  C 17.2073863636364 69.5052083333333  16.0568181818182 70  14.7272727272727 70  L 9.81818181818182 70  C 8.48863636363637 70  7.33806818181818 69.5052083333333  6.36647727272727 68.515625  C 5.39488636363636 67.5260416666667  4.90909090909091 66.3541666666667  5 65  L 5 34.5703125  C 3.45170454545455 34.0494791666667  2.26917613636364 33.1380208333333  1.36150568181818 31.8359375  C 0.453835227272727 30.5338541666667  0 29.0885416666667  0 27.5  L 0 2.5  C 0 1.82291666666666  0.242897727272727 1.23697916666666  0.728693181818182 0.742187500000002  C 1.21448863636364 0.247395833333339  1.78977272727273 0  2.45454545454545 0  C 3.11931818181818 0  3.69460227272727 0.247395833333339  4.18039772727273 0.742187500000002  C 4.66619318181818 1.23697916666666  4.90909090909091 1.82291666666666  5 2.5  L 5 18.75  C 4.90909090909091 19.4270833333333  5.15198863636364 20.0130208333333  5.63778409090909 20.5078125  C 6.12357954545455 21.0026041666667  6.69886363636364 21.25  7.36363636363636 21.25  C 8.02840909090909 21.25  8.60369318181818 21.0026041666667  9.08948863636364 20.5078125  C 9.57528409090909 20.0130208333333  9.81818181818182 19.4270833333333  10 18.75  L 10 2.5  C 9.81818181818182 1.82291666666666  10.0610795454545 1.23697916666666  10.546875 0.742187500000002  C 11.0326704545455 0.247395833333339  11.6079545454545 0  12.2727272727273 0  C 12.9375 0  13.5127840909091 0.247395833333339  13.9985795454545 0.742187500000002  C 14.484375 1.23697916666666  14.7272727272727 1.82291666666666  15 2.5  L 15 18.75  C 14.7272727272727 19.4270833333333  14.9701704545455 20.0130208333333  15.4559659090909 20.5078125  C 15.9417613636364 21.0026041666667  16.5170454545455 21.25  17.1818181818182 21.25  C 17.8465909090909 21.25  18.421875 21.0026041666667  18.9076704545455 20.5078125  C 19.3934659090909 20.0130208333333  19.6363636363636 19.4270833333333  20 18.75  L 20 2.5  C 19.6363636363636 1.82291666666666  19.8792613636364 1.23697916666666  20.3650568181818 0.742187500000002  C 20.8508522727273 0.247395833333339  21.4261363636364 0  22.0909090909091 0  C 22.7556818181818 0  23.3309659090909 0.247395833333339  23.8167613636364 0.742187500000002  Z M 53.2713068181818 0.742187500000002  C 53.7571022727273 1.23697916666666  54 1.82291666666666  54 2.5  L 54 65  C 54 66.3541666666667  53.5142045454545 67.5260416666667  52.5426136363636 68.515625  C 51.5710227272727 69.5052083333333  50.4204545454545 70  49.0909090909091 70  L 44.1818181818182 70  C 42.8522727272727 70  41.7017045454545 69.5052083333333  40.7301136363636 68.515625  C 39.7585227272727 67.5260416666667  39.2727272727273 66.3541666666667  39 65  L 39 45  L 30.6818181818182 45  C 30.3494318181818 45  30.0617897727273 44.8763020833333  29.8188920454545 44.62890625  C 29.5759943181818 44.3815104166667  29.4545454545455 44.0885416666667  29 43.75  L 29 12.5  C 29.4545454545455 9.0625  30.65625 6.11979166666666  33.0596590909091 3.671875  C 35.4630681818182 1.22395833333334  38.3522727272727 0  41.7272727272727 0  L 51.5454545454545 0  C 52.2102272727273 0  52.7855113636364 0.247395833333339  53.2713068181818 0.742187500000002  Z " fill-rule="nonzero" fill="#fd4100" stroke="none" transform="matrix(1 0 0 1 1101 1190 )" />
  </g>
</svg>