<?xml version="1.0" encoding="utf-8"?>
<svg version="1.1" xmlns:xlink="http://www.w3.org/1999/xlink" width="48px" height="57px" xmlns="http://www.w3.org/2000/svg">
  <g transform="matrix(1 0 0 1 -459 -3172 )">
    <path d="M 21.1704545454545 0.60435267857143  C 21.6022727272727 1.00725446428571  21.8181818181818 1.484375  22 2.03571428571428  L 22 22.3928571428571  C 21.8181818181818 23.6863839285714  21.4147727272727 24.86328125  20.6079545454545 25.9235491071429  C 19.8011363636364 26.9838169642857  18.75 27.7260044642857  18 28.1501116071429  L 18 52.9285714285714  C 17.4545454545455 54.03125  17.0227272727273 54.9854910714286  16.1590909090909 55.7912946428571  C 15.2954545454545 56.5970982142857  14.2727272727273 57  13.0909090909091 57  L 8.72727272727273 57  C 7.54545454545455 57  6.52272727272727 56.5970982142857  5.65909090909091 55.7912946428571  C 4.79545454545455 54.9854910714286  4.36363636363636 54.03125  5 52.9285714285714  L 5 28.1501116071429  C 3.06818181818182 27.7260044642857  2.01704545454545 26.9838169642857  1.21022727272727 25.9235491071429  C 0.403409090909091 24.86328125  0 23.6863839285714  0 22.3928571428571  L 0 2.03571428571428  C 0 1.484375  0.215909090909091 1.00725446428571  0.647727272727273 0.60435267857143  C 1.07954545454545 0.201450892857148  1.59090909090909 0  2.18181818181818 0  C 2.77272727272727 0  3.28409090909091 0.201450892857148  3.71590909090909 0.60435267857143  C 4.14772727272727 1.00725446428571  4.36363636363636 1.484375  5 2.03571428571428  L 5 15.2678571428571  C 4.36363636363636 15.8191964285714  4.57954545454546 16.2963169642857  5.01136363636364 16.69921875  C 5.44318181818182 17.1021205357143  5.95454545454546 17.3035714285714  6.54545454545455 17.3035714285714  C 7.13636363636364 17.3035714285714  7.64772727272727 17.1021205357143  8.07954545454546 16.69921875  C 8.51136363636364 16.2963169642857  8.72727272727273 15.8191964285714  9 15.2678571428571  L 9 2.03571428571428  C 8.72727272727273 1.484375  8.94318181818182 1.00725446428571  9.375 0.60435267857143  C 9.80681818181818 0.201450892857148  10.3181818181818 0  10.9090909090909 0  C 11.5 0  12.0113636363636 0.201450892857148  12.4431818181818 0.60435267857143  C 12.875 1.00725446428571  13.0909090909091 1.484375  13 2.03571428571428  L 13 15.2678571428571  C 13.0909090909091 15.8191964285714  13.3068181818182 16.2963169642857  13.7386363636364 16.69921875  C 14.1704545454545 17.1021205357143  14.6818181818182 17.3035714285714  15.2727272727273 17.3035714285714  C 15.8636363636364 17.3035714285714  16.375 17.1021205357143  16.8068181818182 16.69921875  C 17.2386363636364 16.2963169642857  17.4545454545455 15.8191964285714  18 15.2678571428571  L 18 2.03571428571428  C 17.4545454545455 1.484375  17.6704545454545 1.00725446428571  18.1022727272727 0.60435267857143  C 18.5340909090909 0.201450892857148  19.0454545454545 0  19.6363636363636 0  C 20.2272727272727 0  20.7386363636364 0.201450892857148  21.1704545454545 0.60435267857143  Z M 47.3522727272727 0.60435267857143  C 47.7840909090909 1.00725446428571  48 1.484375  48 2.03571428571428  L 48 52.9285714285714  C 48 54.03125  47.5681818181818 54.9854910714286  46.7045454545455 55.7912946428571  C 45.8409090909091 56.5970982142857  44.8181818181818 57  43.6363636363636 57  L 39.2727272727273 57  C 38.0909090909091 57  37.0681818181818 56.5970982142857  36.2045454545455 55.7912946428571  C 35.3409090909091 54.9854910714286  34.9090909090909 54.03125  35 52.9285714285714  L 35 36.6428571428571  L 27.2727272727273 36.6428571428571  C 26.9772727272727 36.6428571428571  26.7215909090909 36.5421316964286  26.5056818181818 36.3406808035714  C 26.2897727272727 36.1392299107143  26.1818181818182 35.9006696428571  26 35.625  L 26 10.1785714285714  C 26.1818181818182 7.37946428571428  27.25 4.98325892857142  29.3863636363636 2.98995535714285  C 31.5227272727273 0.996651785714293  34.0909090909091 0  37.0909090909091 0  L 45.8181818181818 0  C 46.4090909090909 0  46.9204545454546 0.201450892857148  47.3522727272727 0.60435267857143  Z " fill-rule="nonzero" fill="#fd4100" stroke="none" transform="matrix(1 0 0 1 459 3172 )" />
  </g>
</svg>