<?xml version="1.0" encoding="utf-8"?>
<svg version="1.1" xmlns:xlink="http://www.w3.org/1999/xlink" width="41px" height="50px" xmlns="http://www.w3.org/2000/svg">
  <g transform="matrix(1 0 0 1 -1083 -3952 )">
    <path d="M 18.0830965909091 0.53013392857143  C 18.4519412878788 0.883556547619041  18.6363636363636 1.30208333333333  19 1.78571428571428  L 19 19.6428571428571  C 18.6363636363636 20.7775297619048  18.2917850378788 21.8098958333333  17.6026278409091 22.7399553571429  C 16.9134706439394 23.6700148809524  16.015625 24.321056547619  15 24.6930803571429  L 15 46.4285714285714  C 14.9090909090909 47.3958333333333  14.5402462121212 48.2328869047619  13.8025568181818 48.9397321428571  C 13.0648674242424 49.6465773809524  12.1912878787879 50  11.1818181818182 50  L 7.45454545454546 50  C 6.44507575757576 50  5.57149621212121 49.6465773809524  4.83380681818182 48.9397321428571  C 4.09611742424242 48.2328869047619  3.72727272727273 47.3958333333333  4 46.4285714285714  L 4 24.6930803571429  C 2.62073863636364 24.321056547619  1.72289299242424 23.6700148809524  1.03373579545455 22.7399553571429  C 0.344578598484848 21.8098958333333  0 20.7775297619048  0 19.6428571428571  L 0 1.78571428571428  C 0 1.30208333333333  0.184422348484848 0.883556547619041  0.553267045454545 0.53013392857143  C 0.922111742424242 0.176711309523814  1.35890151515152 0  1.86363636363636 0  C 2.36837121212121 0  2.80516098484848 0.176711309523814  3.17400568181818 0.53013392857143  C 3.54285037878788 0.883556547619041  3.72727272727273 1.30208333333333  4 1.78571428571428  L 4 13.3928571428571  C 3.72727272727273 13.8764880952381  3.91169507575758 14.2950148809524  4.28053977272727 14.6484375  C 4.64938446969697 15.0018601190476  5.08617424242424 15.1785714285714  5.59090909090909 15.1785714285714  C 6.09564393939394 15.1785714285714  6.53243371212121 15.0018601190476  6.90127840909091 14.6484375  C 7.27012310606061 14.2950148809524  7.45454545454546 13.8764880952381  8 13.3928571428571  L 8 1.78571428571428  C 7.45454545454546 1.30208333333333  7.6389678030303 0.883556547619041  8.0078125 0.53013392857143  C 8.3766571969697 0.176711309523814  8.81344696969697 0  9.31818181818182 0  C 9.82291666666667 0  10.2597064393939 0.176711309523814  10.6285511363636 0.53013392857143  C 10.9973958333333 0.883556547619041  11.1818181818182 1.30208333333333  12 1.78571428571428  L 12 13.3928571428571  C 11.1818181818182 13.8764880952381  11.366240530303 14.2950148809524  11.7350852272727 14.6484375  C 12.1039299242424 15.0018601190476  12.5407196969697 15.1785714285714  13.0454545454545 15.1785714285714  C 13.5501893939394 15.1785714285714  13.9869791666667 15.0018601190476  14.3558238636364 14.6484375  C 14.7246685606061 14.2950148809524  14.9090909090909 13.8764880952381  15 13.3928571428571  L 15 1.78571428571428  C 14.9090909090909 1.30208333333333  15.0935132575758 0.883556547619041  15.4623579545455 0.53013392857143  C 15.8312026515152 0.176711309523814  16.2679924242424 0  16.7727272727273 0  C 17.2774621212121 0  17.7142518939394 0.176711309523814  18.0830965909091 0.53013392857143  Z M 40.4467329545455 0.53013392857143  C 40.8155776515152 0.883556547619041  41 1.30208333333333  41 1.78571428571428  L 41 46.4285714285714  C 41 47.3958333333333  40.6311553030303 48.2328869047619  39.8934659090909 48.9397321428571  C 39.1557765151515 49.6465773809524  38.282196969697 50  37.2727272727273 50  L 33.5454545454545 50  C 32.5359848484849 50  31.6624053030303 49.6465773809524  30.9247159090909 48.9397321428571  C 30.1870265151515 48.2328869047619  29.8181818181818 47.3958333333333  29 46.4285714285714  L 29 32.1428571428571  L 23.2954545454545 32.1428571428571  C 23.0430871212121 32.1428571428571  22.8246922348485 32.0545014880952  22.6402698863636 31.8777901785714  C 22.4558475378788 31.7010788690476  22.3636363636364 31.4918154761905  22 31.25  L 22 8.92857142857143  C 22.3636363636364 6.47321428571428  23.2760416666667 4.37127976190476  25.1008522727273 2.62276785714286  C 26.9256628787879 0.874255952380959  29.1193181818182 0  31.6818181818182 0  L 39.1363636363636 0  C 39.6410984848485 0  40.0778882575758 0.176711309523814  40.4467329545455 0.53013392857143  Z " fill-rule="nonzero" fill="#fd4100" stroke="none" transform="matrix(1 0 0 1 1083 3952 )" />
  </g>
</svg>