<?xml version="1.0" encoding="utf-8"?>
<svg version="1.1" xmlns:xlink="http://www.w3.org/1999/xlink" width="55px" height="71px" xmlns="http://www.w3.org/2000/svg">
  <g transform="matrix(1 0 0 1 -1228 -1178 )">
    <path d="M 24.2578125 0.752790178571431  C 24.7526041666667 1.25465029761904  25 1.84895833333333  25 2.53571428571428  L 25 27.8928571428571  C 25 29.5040922619048  24.5377604166667 30.9700520833333  23.61328125 32.2907366071429  C 22.6888020833333 33.6114211309524  21.484375 34.535900297619  20 35.0641741071429  L 20 65.9285714285714  C 20 67.3020833333333  19.5052083333333 68.4906994047619  18.515625 69.4944196428572  C 17.5260416666667 70.4981398809524  16.3541666666667 71  15 71  L 10 71  C 8.64583333333334 71  7.47395833333333 70.4981398809524  6.484375 69.4944196428572  C 5.49479166666667 68.4906994047619  5 67.3020833333333  5 65.9285714285714  L 5 35.0641741071429  C 3.515625 34.535900297619  2.31119791666667 33.6114211309524  1.38671875 32.2907366071429  C 0.462239583333333 30.9700520833333  0 29.5040922619048  0 27.8928571428571  L 0 2.53571428571428  C 0 1.84895833333333  0.247395833333333 1.25465029761904  0.7421875 0.752790178571431  C 1.23697916666667 0.250930059523816  1.82291666666667 0  2.5 0  C 3.17708333333333 0  3.76302083333333 0.250930059523816  4.2578125 0.752790178571431  C 4.75260416666667 1.25465029761904  5 1.84895833333333  5 2.53571428571428  L 5 19.0178571428571  C 5 19.7046130952381  5.24739583333333 20.2989211309524  5.7421875 20.80078125  C 6.23697916666667 21.3026413690476  6.82291666666667 21.5535714285714  7.5 21.5535714285714  C 8.17708333333333 21.5535714285714  8.76302083333333 21.3026413690476  9.2578125 20.80078125  C 9.75260416666667 20.2989211309524  10 19.7046130952381  10 19.0178571428571  L 10 2.53571428571428  C 10 1.84895833333333  10.2473958333333 1.25465029761904  10.7421875 0.752790178571431  C 11.2369791666667 0.250930059523816  11.8229166666667 0  12.5 0  C 13.1770833333333 0  13.7630208333333 0.250930059523816  14.2578125 0.752790178571431  C 14.7526041666667 1.25465029761904  15 1.84895833333333  15 2.53571428571428  L 15 19.0178571428571  C 15 19.7046130952381  15.2473958333333 20.2989211309524  15.7421875 20.80078125  C 16.2369791666667 21.3026413690476  16.8229166666667 21.5535714285714  17.5 21.5535714285714  C 18.1770833333333 21.5535714285714  18.7630208333333 21.3026413690476  19.2578125 20.80078125  C 19.7526041666667 20.2989211309524  20 19.7046130952381  20 19.0178571428571  L 20 2.53571428571428  C 20 1.84895833333333  20.2473958333333 1.25465029761904  20.7421875 0.752790178571431  C 21.2369791666667 0.250930059523816  21.8229166666667 0  22.5 0  C 23.1770833333333 0  23.7630208333333 0.250930059523816  24.2578125 0.752790178571431  Z M 54.2578125 0.752790178571431  C 54.7526041666667 1.25465029761904  55 1.84895833333333  55 2.53571428571428  L 55 65.9285714285714  C 55 67.3020833333333  54.5052083333333 68.4906994047619  53.515625 69.4944196428572  C 52.5260416666667 70.4981398809524  51.3541666666667 71  50 71  L 45 71  C 43.6458333333333 71  42.4739583333333 70.4981398809524  41.484375 69.4944196428572  C 40.4947916666667 68.4906994047619  40 67.3020833333333  40 65.9285714285714  L 40 45.6428571428571  L 31.25 45.6428571428571  C 30.9114583333333 45.6428571428571  30.6184895833333 45.5173921130952  30.37109375 45.2664620535714  C 30.1236979166667 45.0155319940476  30 44.7183779761905  30 44.375  L 30 12.6785714285714  C 30 9.19196428571428  31.2239583333333 6.20721726190475  33.671875 3.72433035714285  C 36.1197916666667 1.24144345238096  39.0625 0  42.5 0  L 52.5 0  C 53.1770833333333 0  53.7630208333333 0.250930059523816  54.2578125 0.752790178571431  Z " fill-rule="nonzero" fill="#fd4100" stroke="none" transform="matrix(1 0 0 1 1228 1178 )" />
  </g>
</svg>