<?xml version="1.0" encoding="utf-8"?>
<svg version="1.1" xmlns:xlink="http://www.w3.org/1999/xlink" width="83px" height="53px" xmlns="http://www.w3.org/2000/svg">
  <g transform="matrix(1 0 0 1 -2583 -3621 )">
    <path d="M 83 41.2478260869565  C 83 42.1524959742351  82.6739040529363 42.9291465378422  82.0217121588089 43.5777777777778  L 73.4745657568238 52.0270531400966  C 72.8223738626965 52.6756843800322  72.050041356493 53  71.1575682382134 53  C 70.2650951199338 53  69.4927626137304 52.6756843800322  68.840570719603 52.0270531400966  L 41.5 24.8357487922705  L 14.159429280397 52.0270531400966  C 13.5072373862696 52.6756843800322  12.7349048800662 53  11.8424317617866 53  C 10.949958643507 53  10.1776261373036 52.6756843800322  9.52543424317618 52.0270531400966  L 0.978287841191067 43.5777777777778  C 0.32609594706369 42.9291465378422  0 42.1524959742351  0 41.2478260869565  C 0 40.3431561996779  0.32609594706369 39.5665056360708  0.978287841191067 38.9178743961353  L 39.1830024813896 0.972946859903381  C 39.835194375517 0.324315619967792  40.6075268817204 0  41.5 0  C 42.3924731182796 0  43.1648056244831 0.324315619967792  43.8169975186104 0.972946859903381  L 82.0217121588089 38.9178743961353  C 82.6739040529363 39.5665056360708  83 40.3431561996779  83 41.2478260869565  Z " fill-rule="nonzero" fill="#000000" stroke="none" transform="matrix(1 0 0 1 2583 3621 )" />
  </g>
</svg>