<?xml version="1.0" encoding="utf-8"?>
<svg version="1.1" xmlns:xlink="http://www.w3.org/1999/xlink" width="55px" height="72px" xmlns="http://www.w3.org/2000/svg">
  <g transform="matrix(1 0 0 1 -1200 -1239 )">
    <path d="M 24.2578125 0.763392857142859  C 24.7526041666667 1.27232142857142  25 1.875  25 2.57142857142857  L 25 28.2857142857143  C 25 29.9196428571428  24.5377604166667 31.40625  23.61328125 32.7455357142857  C 22.6888020833333 34.0848214285714  21.484375 35.0223214285714  20 35.5580357142857  L 20 66.8571428571429  C 20 68.25  19.5052083333333 69.4553571428571  18.515625 70.4732142857143  C 17.5260416666667 71.4910714285714  16.3541666666667 72  15 72  L 10 72  C 8.64583333333334 72  7.47395833333333 71.4910714285714  6.484375 70.4732142857143  C 5.49479166666667 69.4553571428571  5 68.25  5 66.8571428571429  L 5 35.5580357142857  C 3.515625 35.0223214285714  2.31119791666667 34.0848214285714  1.38671875 32.7455357142857  C 0.462239583333333 31.40625  0 29.9196428571428  0 28.2857142857143  L 0 2.57142857142857  C 0 1.875  0.247395833333333 1.27232142857142  0.7421875 0.763392857142859  C 1.23697916666667 0.254464285714292  1.82291666666667 0  2.5 0  C 3.17708333333333 0  3.76302083333333 0.254464285714292  4.2578125 0.763392857142859  C 4.75260416666667 1.27232142857142  5 1.875  5 2.57142857142857  L 5 19.2857142857143  C 5 19.9821428571429  5.24739583333333 20.5848214285714  5.7421875 21.09375  C 6.23697916666667 21.6026785714286  6.82291666666667 21.8571428571429  7.5 21.8571428571429  C 8.17708333333333 21.8571428571429  8.76302083333333 21.6026785714286  9.2578125 21.09375  C 9.75260416666667 20.5848214285714  10 19.9821428571429  10 19.2857142857143  L 10 2.57142857142857  C 10 1.875  10.2473958333333 1.27232142857142  10.7421875 0.763392857142859  C 11.2369791666667 0.254464285714292  11.8229166666667 0  12.5 0  C 13.1770833333333 0  13.7630208333333 0.254464285714292  14.2578125 0.763392857142859  C 14.7526041666667 1.27232142857142  15 1.875  15 2.57142857142857  L 15 19.2857142857143  C 15 19.9821428571429  15.2473958333333 20.5848214285714  15.7421875 21.09375  C 16.2369791666667 21.6026785714286  16.8229166666667 21.8571428571429  17.5 21.8571428571429  C 18.1770833333333 21.8571428571429  18.7630208333333 21.6026785714286  19.2578125 21.09375  C 19.7526041666667 20.5848214285714  20 19.9821428571429  20 19.2857142857143  L 20 2.57142857142857  C 20 1.875  20.2473958333333 1.27232142857142  20.7421875 0.763392857142859  C 21.2369791666667 0.254464285714292  21.8229166666667 0  22.5 0  C 23.1770833333333 0  23.7630208333333 0.254464285714292  24.2578125 0.763392857142859  Z M 54.2578125 0.763392857142859  C 54.7526041666667 1.27232142857142  55 1.875  55 2.57142857142857  L 55 66.8571428571429  C 55 68.25  54.5052083333333 69.4553571428571  53.515625 70.4732142857143  C 52.5260416666667 71.4910714285714  51.3541666666667 72  50 72  L 45 72  C 43.6458333333333 72  42.4739583333333 71.4910714285714  41.484375 70.4732142857143  C 40.4947916666667 69.4553571428571  40 68.25  40 66.8571428571429  L 40 46.2857142857143  L 31.25 46.2857142857143  C 30.9114583333333 46.2857142857143  30.6184895833333 46.1584821428572  30.37109375 45.9040178571429  C 30.1236979166667 45.6495535714286  30 45.3482142857143  30 45  L 30 12.8571428571429  C 30 9.32142857142857  31.2239583333333 6.29464285714285  33.671875 3.77678571428571  C 36.1197916666667 1.25892857142858  39.0625 0  42.5 0  L 52.5 0  C 53.1770833333333 0  53.7630208333333 0.254464285714292  54.2578125 0.763392857142859  Z " fill-rule="nonzero" fill="#fd4100" stroke="none" transform="matrix(1 0 0 1 1200 1239 )" />
  </g>
</svg>