<?xml version="1.0" encoding="utf-8"?>
<svg version="1.1" xmlns:xlink="http://www.w3.org/1999/xlink" width="87px" height="55px" xmlns="http://www.w3.org/2000/svg">
  <g transform="matrix(1 0 0 1 -2605 -3588 )">
    <path d="M 87 42.804347826087  C 87 43.7431561996779  86.6581885856079 44.549114331723  85.9745657568238 45.2222222222222  L 77.0155086848635 53.9903381642512  C 76.3318858560794 54.6634460547504  75.5223325062035 55  74.5868486352357 55  C 73.651364764268 55  72.8418114143921 54.6634460547504  72.1581885856079 53.9903381642512  L 43.5 25.7729468599034  L 14.8418114143921 53.9903381642512  C 14.1581885856079 54.6634460547504  13.348635235732 55  12.4131513647643 55  C 11.4776674937965 55  10.6681141439206 54.6634460547504  9.98449131513648 53.9903381642512  L 1.02543424317618 45.2222222222222  C 0.34181141439206 44.549114331723  0 43.7431561996779  0 42.804347826087  C 0 41.865539452496  0.34181141439206 41.0595813204509  1.02543424317618 40.3864734299517  L 41.0713399503722 1.00966183574879  C 41.7549627791563 0.336553945249595  42.5645161290323 0  43.5 0  C 44.4354838709677 0  45.2450372208437 0.336553945249595  45.9286600496278 1.00966183574879  L 85.9745657568238 40.3864734299517  C 86.6581885856079 41.0595813204509  87 41.865539452496  87 42.804347826087  Z " fill-rule="nonzero" fill="#000000" stroke="none" transform="matrix(1 0 0 1 2605 3588 )" />
  </g>
</svg>