<?xml version="1.0" encoding="utf-8"?>
<svg version="1.1" xmlns:xlink="http://www.w3.org/1999/xlink" width="58px" height="77px" xmlns="http://www.w3.org/2000/svg">
  <g transform="matrix(1 0 0 1 -1241 -1340 )">
    <path d="M 25.5809659090909 0.816406250000002  C 26.1027462121212 1.36067708333332  26.3636363636364 2.00520833333333  27 2.75  L 27 30.25  C 26.3636363636364 31.9973958333333  25.8761837121212 33.5872395833333  24.9012784090909 35.01953125  C 23.9263731060606 36.4518229166667  22.65625 37.4544270833333  21 38.02734375  L 21 71.5  C 21.0909090909091 72.9895833333333  20.5691287878788 74.2786458333333  19.5255681818182 75.3671875  C 18.4820075757576 76.4557291666667  17.2462121212121 77  15.8181818181818 77  L 10.5454545454545 77  C 9.11742424242424 77  7.88162878787879 76.4557291666667  6.83806818181818 75.3671875  C 5.79450757575758 74.2786458333333  5.27272727272727 72.9895833333333  6 71.5  L 6 38.02734375  C 3.70738636363636 37.4544270833333  2.43726325757576 36.4518229166667  1.46235795454545 35.01953125  C 0.487452651515151 33.5872395833333  0 31.9973958333333  0 30.25  L 0 2.75  C 0 2.00520833333333  0.260890151515151 1.36067708333332  0.782670454545455 0.816406250000002  C 1.30445075757576 0.272135416666673  1.92234848484849 0  2.63636363636364 0  C 3.35037878787879 0  3.96827651515152 0.272135416666673  4.49005681818182 0.816406250000002  C 5.01183712121212 1.36067708333332  5.27272727272727 2.00520833333333  6 2.75  L 6 20.625  C 5.27272727272727 21.3697916666667  5.53361742424242 22.0143229166667  6.05539772727273 22.55859375  C 6.57717803030303 23.1028645833333  7.19507575757576 23.375  7.90909090909091 23.375  C 8.62310606060606 23.375  9.24100378787879 23.1028645833333  9.76278409090909 22.55859375  C 10.2845643939394 22.0143229166667  10.5454545454545 21.3697916666667  11 20.625  L 11 2.75  C 10.5454545454545 2.00520833333333  10.8063446969697 1.36067708333332  11.328125 0.816406250000002  C 11.8499053030303 0.272135416666673  12.467803030303 0  13.1818181818182 0  C 13.8958333333333 0  14.5137310606061 0.272135416666673  15.0355113636364 0.816406250000002  C 15.5572916666667 1.36067708333332  15.8181818181818 2.00520833333333  16 2.75  L 16 20.625  C 15.8181818181818 21.3697916666667  16.079071969697 22.0143229166667  16.6008522727273 22.55859375  C 17.1226325757576 23.1028645833333  17.7405303030303 23.375  18.4545454545455 23.375  C 19.1685606060606 23.375  19.7864583333333 23.1028645833333  20.3082386363636 22.55859375  C 20.8300189393939 22.0143229166667  21.0909090909091 21.3697916666667  21 20.625  L 21 2.75  C 21.0909090909091 2.00520833333333  21.3517992424242 1.36067708333332  21.8735795454545 0.816406250000002  C 22.3953598484849 0.272135416666673  23.0132575757576 0  23.7272727272727 0  C 24.4412878787879 0  25.0591856060606 0.272135416666673  25.5809659090909 0.816406250000002  Z M 57.2173295454545 0.816406250000002  C 57.7391098484849 1.36067708333332  58 2.00520833333333  58 2.75  L 58 71.5  C 58 72.9895833333333  57.4782196969697 74.2786458333333  56.4346590909091 75.3671875  C 55.3910984848485 76.4557291666667  54.155303030303 77  52.7272727272727 77  L 47.4545454545455 77  C 46.0265151515152 77  44.7907196969697 76.4557291666667  43.7471590909091 75.3671875  C 42.7035984848485 74.2786458333333  42.1818181818182 72.9895833333333  42 71.5  L 42 49.5  L 32.9545454545455 49.5  C 32.5975378787879 49.5  32.2885890151515 49.3639322916667  32.0276988636364 49.091796875  C 31.7668087121212 48.8196614583333  31.6363636363636 48.4973958333333  31 48.125  L 31 13.75  C 31.6363636363636 9.96875  32.9270833333333 6.73177083333332  35.5085227272727 4.0390625  C 38.0899621212121 1.34635416666668  41.1931818181818 0  44.8181818181818 0  L 55.3636363636364 0  C 56.0776515151515 0  56.6955492424242 0.272135416666673  57.2173295454545 0.816406250000002  Z " fill-rule="nonzero" fill="#fd4100" stroke="none" transform="matrix(1 0 0 1 1241 1340 )" />
  </g>
</svg>