<?xml version="1.0" encoding="utf-8"?>
<svg version="1.1" xmlns:xlink="http://www.w3.org/1999/xlink" width="51px" height="32px" xmlns="http://www.w3.org/2000/svg">
  <g transform="matrix(1 0 0 1 -2688 -7447 )">
    <path d="M 51 24.904347826087  C 51 25.4505636070854  50.7996277915633 25.9194847020934  50.3988833746898 26.3111111111111  L 45.1470223325062 31.4125603864734  C 44.7462779156328 31.8041867954911  44.2717121588089 32  43.7233250620347 32  C 43.1749379652605 32  42.7003722084367 31.8041867954911  42.2996277915633 31.4125603864734  L 25.5 14.9951690821256  L 8.70037220843673 31.4125603864734  C 8.29962779156328 31.8041867954911  7.82506203473946 32  7.27667493796526 32  C 6.72828784119107 32  6.25372208436725 31.8041867954911  5.8529776674938 31.4125603864734  L 0.601116625310174 26.3111111111111  C 0.200372208436725 25.9194847020934  0 25.4505636070854  0 24.904347826087  C 0 24.3581320450886  0.200372208436725 23.8892109500805  0.601116625310174 23.4975845410628  L 24.0763027295285 0.58743961352657  C 24.477047146402 0.195813204508855  24.9516129032258 0  25.5 0  C 26.0483870967742 0  26.522952853598 0.195813204508855  26.9236972704715 0.58743961352657  L 50.3988833746898 23.4975845410628  C 50.7996277915633 23.8892109500805  51 24.3581320450886  51 24.904347826087  Z " fill-rule="nonzero" fill="#000000" stroke="none" transform="matrix(1 0 0 1 2688 7447 )" />
  </g>
</svg>