<?xml version="1.0" encoding="utf-8"?>
<svg version="1.1" xmlns:xlink="http://www.w3.org/1999/xlink" width="74px" height="48px" xmlns="http://www.w3.org/2000/svg">
  <g transform="matrix(1 0 0 1 -2569 -3323 )">
    <path d="M 74 37.3565217391304  C 74 38.175845410628  73.7092638544251 38.8792270531401  73.1277915632754 39.4666666666667  L 65.5074441687345 47.1188405797101  C 64.9259718775848 47.7062801932367  64.2373862696443 48  63.4416873449132 48  C 62.645988420182 48  61.9574028122415 47.7062801932367  61.3759305210918 47.1188405797101  L 37 22.4927536231884  L 12.6240694789082 47.1188405797101  C 12.0425971877585 47.7062801932367  11.354011579818 48  10.5583126550868 48  C 9.76261373035567 48  9.07402812241522 47.7062801932367  8.49255583126551 47.1188405797101  L 0.872208436724566 39.4666666666667  C 0.290736145574856 38.8792270531401  0 38.175845410628  0 37.3565217391304  C 0 36.5371980676328  0.290736145574856 35.8338164251208  0.872208436724566 35.2463768115942  L 34.9342431761787 0.881159420289855  C 35.5157154673284 0.293719806763283  36.2043010752688 0  37 0  C 37.7956989247312 0  38.4842845326716 0.293719806763283  39.0657568238213 0.881159420289855  L 73.1277915632754 35.2463768115942  C 73.7092638544251 35.8338164251208  74 36.5371980676328  74 37.3565217391304  Z " fill-rule="nonzero" fill="#000000" stroke="none" transform="matrix(1 0 0 1 2569 3323 )" />
  </g>
</svg>